<?xml version="1.0" encoding="utf-8"?>
<!-- Generator: Adobe Illustrator 19.0.0, SVG Export Plug-In . SVG Version: 6.00 Build 0)  -->
<svg version="1.1" id="圖層_1" xmlns="http://www.w3.org/2000/svg" xmlns:xlink="http://www.w3.org/1999/xlink" x="0px" y="0px"
	 viewBox="0 0 70 70" style="enable-background:new 0 0 70 70;" xml:space="preserve">
<style type="text/css">
	.st0{fill:#FFFFFF;}
</style>
<path id="XMLID_4_" class="st0" d="M65.5,18.9h-61c-2.1,0-3.7-1.7-3.7-3.7v0c0-2.1,1.7-3.7,3.7-3.7h61c2.1,0,3.7,1.7,3.7,3.7v0
	C69.3,17.3,67.6,18.9,65.5,18.9z"/>
<path id="XMLID_3_" class="st0" d="M65.5,38.7h-61c-2.1,0-3.7-1.7-3.7-3.7v0c0-2.1,1.7-3.7,3.7-3.7h61c2.1,0,3.7,1.7,3.7,3.7v0
	C69.3,37.1,67.6,38.7,65.5,38.7z"/>
<path id="XMLID_2_" class="st0" d="M65.5,58.5h-61c-2.1,0-3.7-1.7-3.7-3.7v0c0-2.1,1.7-3.7,3.7-3.7h61c2.1,0,3.7,1.7,3.7,3.7v0
	C69.3,56.9,67.6,58.5,65.5,58.5z"/>
</svg>
