<svg id="BACKGROUND" xmlns="http://www.w3.org/2000/svg" viewBox="0 0 1440 500"><defs><style>.cls-1{fill:#63a7d9;opacity:0.37;isolation:isolate;}.cls-2{fill:#0568b2;}</style></defs><rect id="Rectangle_1618" data-name="Rectangle 1618" class="cls-1" x="1262.9" y="35.31" width="23" height="243" transform="translate(275.94 964.13) rotate(-45.97)"/><rect id="Rectangle_88" data-name="Rectangle 88" class="cls-2" x="-58.5" y="-49.5" width="1537" height="605"/><polygon id="Rectangle_1618-2" data-name="Rectangle 1618" class="cls-1" points="1190.18 39.87 1315.5 146.1 1304.03 156.5 1178.71 50.27 1190.18 39.87"/><rect id="Rectangle_1620" data-name="Rectangle 1620" class="cls-1" x="172.38" y="268.64" width="7" height="100" transform="translate(-175.46 223.64) rotate(-45.97)"/><rect id="Rectangle_1621" data-name="Rectangle 1621" class="cls-1" x="104.58" y="237.64" width="7" height="100" transform="translate(-173.85 165.44) rotate(-45.97)"/><polygon id="Rectangle_1618-3" data-name="Rectangle 1618" class="cls-1" points="1258.16 325.64 1383.48 431.87 1372.01 442.27 1246.69 336.04 1258.16 325.64"/><rect id="Rectangle_1620-2" data-name="Rectangle 1620" class="cls-1" x="1270.59" y="238.08" width="7" height="100" transform="translate(181.46 1003.94) rotate(-45.97)"/><rect id="Rectangle_1620-3" data-name="Rectangle 1620" class="cls-1" x="104.59" y="48.08" width="7" height="100" transform="translate(-37.56 107.63) rotate(-45.97)"/><polygon id="Rectangle_1618-4" data-name="Rectangle 1618" class="cls-1" points="157.16 76.77 282.48 183 271.01 193.4 145.69 87.17 157.16 76.77"/><polygon id="Rectangle_1618-5" data-name="Rectangle 1618" class="cls-1" points="438.16 260.77 563.48 367 552.01 377.4 426.69 271.17 438.16 260.77"/><rect id="Rectangle_1620-4" data-name="Rectangle 1620" class="cls-1" x="598.59" y="306.08" width="7" height="100" transform="translate(-72.39 541.51) rotate(-45.97)"/><polygon id="Rectangle_1618-6" data-name="Rectangle 1618" class="cls-1" points="506.16 156.77 631.48 263 620.01 273.4 494.69 167.17 506.16 156.77"/><rect id="Rectangle_1620-5" data-name="Rectangle 1620" class="cls-1" x="678.59" y="347.08" width="7" height="100" transform="translate(-77.47 611.53) rotate(-45.97)"/><polygon id="Rectangle_1618-7" data-name="Rectangle 1618" class="cls-1" points="870.16 98.77 995.48 205 984.01 215.4 858.7 109.17 870.16 98.77"/><polygon id="Rectangle_1618-8" data-name="Rectangle 1618" class="cls-1" points="955.16 229.77 1080.48 336 1069.01 346.4 943.7 240.17 955.16 229.77"/><rect id="Rectangle_1620-6" data-name="Rectangle 1620" class="cls-1" x="706.59" y="85.08" width="7" height="100" transform="translate(119.45 551.76) rotate(-45.97)"/><polygon id="Rectangle_1618-9" data-name="Rectangle 1618" class="cls-1" points="477.16 362.77 602.48 469 591.01 479.4 465.69 373.17 477.16 362.77"/><rect id="Rectangle_1620-7" data-name="Rectangle 1620" class="cls-1" x="885.59" y="211.08" width="7" height="100" transform="translate(83.45 718.89) rotate(-45.97)"/></svg>